<?xml version="1.0" standalone="no"?>
<!DOCTYPE svg PUBLIC "-//W3C//DTD SVG 20010904//EN"
 "http://www.w3.org/TR/2001/REC-SVG-20010904/DTD/svg10.dtd">
<svg version="1.0" xmlns="http://www.w3.org/2000/svg"
 width="600.000000pt" height="600.000000pt" viewBox="0 0 600.000000 600.000000"
 preserveAspectRatio="xMidYMid meet">

<g transform="translate(0.000000,600.000000) scale(0.100000,-0.100000)"
fill="#000000" stroke="none">
<path d="M1500 4290 l0 -190 195 0 195 0 0 190 0 190 -195 0 -195 0 0 -190z"/>
<path d="M4140 4290 l0 -190 -175 0 -175 0 0 -180 0 -180 175 0 175 0 0 180 0
180 190 0 190 0 0 190 0 190 -190 0 -190 0 0 -190z"/>
<path d="M360 3915 l0 -185 185 0 185 0 0 185 0 185 -185 0 -185 0 0 -185z"/>
<path d="M1900 3920 l0 -180 180 0 180 0 0 180 0 180 -180 0 -180 0 0 -180z"/>
<path d="M5290 3915 l0 -185 -200 0 -200 0 0 -180 0 -180 -185 0 -185 0 0
-370 0 -370 -190 0 -190 0 0 -200 0 -200 190 0 190 0 0 200 0 200 185 0 185 0
0 370 0 370 200 0 200 0 0 180 0 180 180 0 180 0 0 185 0 185 -180 0 -180 0 0
-185z"/>
<path d="M740 3550 l0 -180 185 0 185 0 0 -370 0 -370 195 0 195 0 0 -200 0
-200 200 0 200 0 0 200 0 200 -200 0 -200 0 0 370 0 370 -195 0 -195 0 0 180
0 180 -185 0 -185 0 0 -180z"/>
<path d="M2260 3550 l0 -180 190 0 190 0 0 180 0 180 -190 0 -190 0 0 -180z"/>
<path d="M3380 3550 l0 -180 205 0 205 0 0 180 0 180 -205 0 -205 0 0 -180z"/>
<path d="M2640 2430 l0 -200 370 0 370 0 0 200 0 200 -370 0 -370 0 0 -200z"/>
<path d="M360 2425 l0 -195 185 0 185 0 0 195 0 195 -185 0 -185 0 0 -195z"/>
<path d="M5290 2425 l0 -195 -200 0 -200 0 0 -185 0 -185 -185 0 -185 0 0
-180 0 -180 185 0 185 0 0 180 0 180 200 0 200 0 0 185 0 185 180 0 180 0 0
195 0 195 -180 0 -180 0 0 -195z"/>
<path d="M740 2045 l0 -185 185 0 185 0 0 -180 0 -180 195 0 195 0 0 180 0
180 -195 0 -195 0 0 185 0 185 -185 0 -185 0 0 -185z"/>
</g>
</svg>
